<svg id="visual" viewBox="0 0 900 600" width="900" height="600" xmlns="http://www.w3.org/2000/svg" xmlns:xlink="http://www.w3.org/1999/xlink" version="1.1"><g stroke-width="1" stroke-linejoin="bevel"><path d="M466 316L390 394L505 363Z" fill="#434a90" stroke="#434a90"></path><path d="M466 316L384 268L390 394Z" fill="#363d65" stroke="#363d65"></path><path d="M384 268L322 378L390 394Z" fill="#3a4173" stroke="#3a4173"></path><path d="M403 535L512 486L390 394Z" fill="#3a4173" stroke="#3a4173"></path><path d="M390 394L512 486L505 363Z" fill="#3a4173" stroke="#3a4173"></path><path d="M512 486L566 463L505 363Z" fill="#685dd8" stroke="#685dd8"></path><path d="M384 268L307 283L322 378Z" fill="#685dd8" stroke="#685dd8"></path><path d="M288 467L403 535L390 394Z" fill="#323857" stroke="#323857"></path><path d="M512 486L632 600L566 463Z" fill="#5f5aca" stroke="#5f5aca"></path><path d="M603 260L510 201L466 316Z" fill="#5f5aca" stroke="#5f5aca"></path><path d="M466 316L510 201L384 268Z" fill="#3e4682" stroke="#3e4682"></path><path d="M384 268L375 167L307 283Z" fill="#434a90" stroke="#434a90"></path><path d="M603 260L466 316L505 363Z" fill="#5756bb" stroke="#5756bb"></path><path d="M238 366L288 467L322 378Z" fill="#5756bb" stroke="#5756bb"></path><path d="M322 378L288 467L390 394Z" fill="#494e9e" stroke="#494e9e"></path><path d="M696 529L625 437L566 463Z" fill="#434a90" stroke="#434a90"></path><path d="M566 463L625 437L505 363Z" fill="#3a4173" stroke="#3a4173"></path><path d="M625 437L603 260L505 363Z" fill="#494e9e" stroke="#494e9e"></path><path d="M307 283L238 366L322 378Z" fill="#5756bb" stroke="#5756bb"></path><path d="M510 201L375 167L384 268Z" fill="#4f52ad" stroke="#4f52ad"></path><path d="M307 283L227 275L238 366Z" fill="#434a90" stroke="#434a90"></path><path d="M603 260L564 180L510 201Z" fill="#5756bb" stroke="#5756bb"></path><path d="M487 74L364 111L375 167Z" fill="#494e9e" stroke="#494e9e"></path><path d="M380 600L470 600L403 535Z" fill="#323857" stroke="#323857"></path><path d="M403 535L470 600L512 486Z" fill="#4f52ad" stroke="#4f52ad"></path><path d="M291 600L380 600L403 535Z" fill="#323857" stroke="#323857"></path><path d="M260 215L227 275L307 283Z" fill="#434a90" stroke="#434a90"></path><path d="M375 167L260 215L307 283Z" fill="#3a4173" stroke="#3a4173"></path><path d="M625 437L690 324L603 260Z" fill="#5f5aca" stroke="#5f5aca"></path><path d="M730 226L582 105L564 180Z" fill="#323857" stroke="#323857"></path><path d="M238 366L208 486L288 467Z" fill="#494e9e" stroke="#494e9e"></path><path d="M288 467L291 600L403 535Z" fill="#363d65" stroke="#363d65"></path><path d="M100 368L208 486L238 366Z" fill="#2f3349" stroke="#2f3349"></path><path d="M260 215L231 204L227 275Z" fill="#494e9e" stroke="#494e9e"></path><path d="M227 275L119 330L238 366Z" fill="#3e4682" stroke="#3e4682"></path><path d="M298 62L231 204L260 215Z" fill="#3e4682" stroke="#3e4682"></path><path d="M487 74L375 167L510 201Z" fill="#5f5aca" stroke="#5f5aca"></path><path d="M375 167L364 111L260 215Z" fill="#4f52ad" stroke="#4f52ad"></path><path d="M625 437L715 430L690 324Z" fill="#434a90" stroke="#434a90"></path><path d="M696 529L715 430L625 437Z" fill="#323857" stroke="#323857"></path><path d="M208 486L291 600L288 467Z" fill="#4f52ad" stroke="#4f52ad"></path><path d="M470 600L632 600L512 486Z" fill="#3a4173" stroke="#3a4173"></path><path d="M632 600L696 529L566 463Z" fill="#5f5aca" stroke="#5f5aca"></path><path d="M730 226L564 180L603 260Z" fill="#494e9e" stroke="#494e9e"></path><path d="M564 180L487 74L510 201Z" fill="#5756bb" stroke="#5756bb"></path><path d="M582 105L487 74L564 180Z" fill="#3a4173" stroke="#3a4173"></path><path d="M690 324L730 226L603 260Z" fill="#4f52ad" stroke="#4f52ad"></path><path d="M794 307L730 226L690 324Z" fill="#434a90" stroke="#434a90"></path><path d="M632 600L671 600L696 529Z" fill="#4f52ad" stroke="#4f52ad"></path><path d="M808 537L770 376L715 430Z" fill="#5756bb" stroke="#5756bb"></path><path d="M715 430L770 376L690 324Z" fill="#5f5aca" stroke="#5f5aca"></path><path d="M808 537L715 430L696 529Z" fill="#3a4173" stroke="#3a4173"></path><path d="M122 191L119 330L227 275Z" fill="#5756bb" stroke="#5756bb"></path><path d="M208 486L202 600L291 600Z" fill="#5756bb" stroke="#5756bb"></path><path d="M118 529L202 600L208 486Z" fill="#5f5aca" stroke="#5f5aca"></path><path d="M401 0L298 62L364 111Z" fill="#3a4173" stroke="#3a4173"></path><path d="M364 111L298 62L260 215Z" fill="#4f52ad" stroke="#4f52ad"></path><path d="M231 204L122 191L227 275Z" fill="#5f5aca" stroke="#5f5aca"></path><path d="M119 330L100 368L238 366Z" fill="#3e4682" stroke="#3e4682"></path><path d="M770 376L794 307L690 324Z" fill="#5756bb" stroke="#5756bb"></path><path d="M100 368L118 529L208 486Z" fill="#323857" stroke="#323857"></path><path d="M298 62L192 110L231 204Z" fill="#685dd8" stroke="#685dd8"></path><path d="M0 267L0 384L100 368Z" fill="#323857" stroke="#323857"></path><path d="M192 110L122 191L231 204Z" fill="#494e9e" stroke="#494e9e"></path><path d="M577 0L479 0L487 74Z" fill="#4f52ad" stroke="#4f52ad"></path><path d="M487 74L401 0L364 111Z" fill="#3a4173" stroke="#3a4173"></path><path d="M577 0L487 74L582 105Z" fill="#434a90" stroke="#434a90"></path><path d="M479 0L401 0L487 74Z" fill="#323857" stroke="#323857"></path><path d="M298 62L182 0L192 110Z" fill="#323857" stroke="#323857"></path><path d="M671 600L763 600L696 529Z" fill="#323857" stroke="#323857"></path><path d="M770 376L900 318L794 307Z" fill="#434a90" stroke="#434a90"></path><path d="M702 0L577 0L582 105Z" fill="#3e4682" stroke="#3e4682"></path><path d="M714 80L582 105L730 226Z" fill="#5f5aca" stroke="#5f5aca"></path><path d="M814 137L714 80L730 226Z" fill="#3a4173" stroke="#3a4173"></path><path d="M401 0L309 0L298 62Z" fill="#363d65" stroke="#363d65"></path><path d="M763 600L808 537L696 529Z" fill="#4f52ad" stroke="#4f52ad"></path><path d="M794 307L824 237L730 226Z" fill="#323857" stroke="#323857"></path><path d="M900 318L824 237L794 307Z" fill="#5f5aca" stroke="#5f5aca"></path><path d="M0 600L107 600L118 529Z" fill="#363d65" stroke="#363d65"></path><path d="M118 529L107 600L202 600Z" fill="#5756bb" stroke="#5756bb"></path><path d="M824 237L814 137L730 226Z" fill="#5756bb" stroke="#5756bb"></path><path d="M714 80L702 0L582 105Z" fill="#494e9e" stroke="#494e9e"></path><path d="M100 368L0 481L118 529Z" fill="#434a90" stroke="#434a90"></path><path d="M0 267L100 368L119 330Z" fill="#3a4173" stroke="#3a4173"></path><path d="M829 0L702 0L714 80Z" fill="#494e9e" stroke="#494e9e"></path><path d="M192 110L64 127L122 191Z" fill="#494e9e" stroke="#494e9e"></path><path d="M122 191L0 267L119 330Z" fill="#5756bb" stroke="#5756bb"></path><path d="M76 0L64 127L192 110Z" fill="#5756bb" stroke="#5756bb"></path><path d="M309 0L182 0L298 62Z" fill="#363d65" stroke="#363d65"></path><path d="M900 511L900 418L808 537Z" fill="#494e9e" stroke="#494e9e"></path><path d="M808 537L900 418L770 376Z" fill="#434a90" stroke="#434a90"></path><path d="M824 237L900 212L814 137Z" fill="#4f52ad" stroke="#4f52ad"></path><path d="M900 418L900 318L770 376Z" fill="#363d65" stroke="#363d65"></path><path d="M0 207L0 267L122 191Z" fill="#5f5aca" stroke="#5f5aca"></path><path d="M0 384L0 481L100 368Z" fill="#3a4173" stroke="#3a4173"></path><path d="M900 600L900 511L808 537Z" fill="#3e4682" stroke="#3e4682"></path><path d="M64 127L0 207L122 191Z" fill="#685dd8" stroke="#685dd8"></path><path d="M900 318L900 212L824 237Z" fill="#4f52ad" stroke="#4f52ad"></path><path d="M814 137L829 0L714 80Z" fill="#494e9e" stroke="#494e9e"></path><path d="M0 481L0 600L118 529Z" fill="#5f5aca" stroke="#5f5aca"></path><path d="M763 600L900 600L808 537Z" fill="#494e9e" stroke="#494e9e"></path><path d="M0 0L0 125L64 127Z" fill="#323857" stroke="#323857"></path><path d="M64 127L0 125L0 207Z" fill="#4f52ad" stroke="#4f52ad"></path><path d="M182 0L76 0L192 110Z" fill="#323857" stroke="#323857"></path><path d="M900 212L900 103L814 137Z" fill="#3e4682" stroke="#3e4682"></path><path d="M900 103L829 0L814 137Z" fill="#5f5aca" stroke="#5f5aca"></path><path d="M76 0L0 0L64 127Z" fill="#2f3349" stroke="#2f3349"></path><path d="M900 103L900 0L829 0Z" fill="#4f52ad" stroke="#4f52ad"></path></g></svg>