<svg id="visual" viewBox="0 0 960 540" width="960" height="540" xmlns="http://www.w3.org/2000/svg" xmlns:xlink="http://www.w3.org/1999/xlink" version="1.1"><g stroke-width="1" stroke-linejoin="bevel"><path d="M457 301L486 346L569 263Z" fill="#3b0c80" stroke="#3b0c80"></path><path d="M486 346L581 349L569 263Z" fill="#4c11a5" stroke="#4c11a5"></path><path d="M685 300L601 213L569 263Z" fill="#340a72" stroke="#340a72"></path><path d="M569 263L516 156L457 301Z" fill="#420e8f" stroke="#420e8f"></path><path d="M408 468L489 425L486 346Z" fill="#4c11a5" stroke="#4c11a5"></path><path d="M486 346L489 425L581 349Z" fill="#340a72" stroke="#340a72"></path><path d="M601 213L516 156L569 263Z" fill="#49109d" stroke="#49109d"></path><path d="M560 480L648 376L581 349Z" fill="#2d0864" stroke="#2d0864"></path><path d="M581 349L685 300L569 263Z" fill="#380b79" stroke="#380b79"></path><path d="M398 175L356 276L457 301Z" fill="#3e0d87" stroke="#3e0d87"></path><path d="M457 301L350 332L486 346Z" fill="#49109d" stroke="#49109d"></path><path d="M648 376L685 300L581 349Z" fill="#340a72" stroke="#340a72"></path><path d="M516 156L398 175L457 301Z" fill="#450f96" stroke="#450f96"></path><path d="M356 276L350 332L457 301Z" fill="#3b0c80" stroke="#3b0c80"></path><path d="M614 126L497 118L516 156Z" fill="#31096b" stroke="#31096b"></path><path d="M516 156L497 118L398 175Z" fill="#420e8f" stroke="#420e8f"></path><path d="M685 300L675 206L601 213Z" fill="#3e0d87" stroke="#3e0d87"></path><path d="M601 213L614 126L516 156Z" fill="#450f96" stroke="#450f96"></path><path d="M447 540L560 480L489 425Z" fill="#450f96" stroke="#450f96"></path><path d="M489 425L560 480L581 349Z" fill="#2a075d" stroke="#2a075d"></path><path d="M675 206L614 126L601 213Z" fill="#380b79" stroke="#380b79"></path><path d="M350 332L408 468L486 346Z" fill="#3e0d87" stroke="#3e0d87"></path><path d="M648 376L737 329L685 300Z" fill="#2a075d" stroke="#2a075d"></path><path d="M685 300L753 205L675 206Z" fill="#31096b" stroke="#31096b"></path><path d="M690 443L737 329L648 376Z" fill="#2a075d" stroke="#2a075d"></path><path d="M753 205L667 127L675 206Z" fill="#380b79" stroke="#380b79"></path><path d="M675 206L667 127L614 126Z" fill="#450f96" stroke="#450f96"></path><path d="M483 0L385 93L497 118Z" fill="#31096b" stroke="#31096b"></path><path d="M398 175L295 258L356 276Z" fill="#450f96" stroke="#450f96"></path><path d="M356 276L295 258L350 332Z" fill="#380b79" stroke="#380b79"></path><path d="M350 332L290 484L408 468Z" fill="#2d0864" stroke="#2d0864"></path><path d="M560 480L690 443L648 376Z" fill="#4c11a5" stroke="#4c11a5"></path><path d="M497 118L385 93L398 175Z" fill="#420e8f" stroke="#420e8f"></path><path d="M398 175L290 144L295 258Z" fill="#340a72" stroke="#340a72"></path><path d="M483 0L497 118L614 0Z" fill="#2a075d" stroke="#2a075d"></path><path d="M447 540L570 540L560 480Z" fill="#31096b" stroke="#31096b"></path><path d="M560 480L640 540L690 443Z" fill="#31096b" stroke="#31096b"></path><path d="M770 304L753 205L685 300Z" fill="#3e0d87" stroke="#3e0d87"></path><path d="M858 411L770 304L737 329Z" fill="#2d0864" stroke="#2d0864"></path><path d="M737 329L770 304L685 300Z" fill="#3b0c80" stroke="#3b0c80"></path><path d="M408 468L447 540L489 425Z" fill="#420e8f" stroke="#420e8f"></path><path d="M295 258L268 369L350 332Z" fill="#3b0c80" stroke="#3b0c80"></path><path d="M408 468L412 540L447 540Z" fill="#2d0864" stroke="#2d0864"></path><path d="M290 484L412 540L408 468Z" fill="#3b0c80" stroke="#3b0c80"></path><path d="M385 93L290 144L398 175Z" fill="#3e0d87" stroke="#3e0d87"></path><path d="M295 258L218 276L268 369Z" fill="#2d0864" stroke="#2d0864"></path><path d="M570 540L640 540L560 480Z" fill="#4c11a5" stroke="#4c11a5"></path><path d="M690 443L791 488L737 329Z" fill="#3b0c80" stroke="#3b0c80"></path><path d="M268 369L290 484L350 332Z" fill="#4c11a5" stroke="#4c11a5"></path><path d="M614 0L497 118L614 126Z" fill="#420e8f" stroke="#420e8f"></path><path d="M385 93L289 78L290 144Z" fill="#380b79" stroke="#380b79"></path><path d="M220 195L218 276L295 258Z" fill="#2d0864" stroke="#2d0864"></path><path d="M193 456L282 540L290 484Z" fill="#31096b" stroke="#31096b"></path><path d="M667 127L614 0L614 126Z" fill="#450f96" stroke="#450f96"></path><path d="M699 0L614 0L667 127Z" fill="#380b79" stroke="#380b79"></path><path d="M225 94L220 195L290 144Z" fill="#2a075d" stroke="#2a075d"></path><path d="M290 144L220 195L295 258Z" fill="#3b0c80" stroke="#3b0c80"></path><path d="M856 218L771 109L753 205Z" fill="#49109d" stroke="#49109d"></path><path d="M753 205L771 109L667 127Z" fill="#31096b" stroke="#31096b"></path><path d="M403 0L289 78L385 93Z" fill="#31096b" stroke="#31096b"></path><path d="M483 0L403 0L385 93Z" fill="#380b79" stroke="#380b79"></path><path d="M793 540L791 488L690 443Z" fill="#4c11a5" stroke="#4c11a5"></path><path d="M770 304L856 218L753 205Z" fill="#2a075d" stroke="#2a075d"></path><path d="M193 456L290 484L268 369Z" fill="#3b0c80" stroke="#3b0c80"></path><path d="M290 484L282 540L412 540Z" fill="#4c11a5" stroke="#4c11a5"></path><path d="M76 353L185 373L218 276Z" fill="#340a72" stroke="#340a72"></path><path d="M218 276L185 373L268 369Z" fill="#450f96" stroke="#450f96"></path><path d="M771 109L699 0L667 127Z" fill="#2d0864" stroke="#2d0864"></path><path d="M869 243L856 218L770 304Z" fill="#450f96" stroke="#450f96"></path><path d="M771 109L774 0L699 0Z" fill="#31096b" stroke="#31096b"></path><path d="M289 78L225 94L290 144Z" fill="#3e0d87" stroke="#3e0d87"></path><path d="M220 195L113 195L218 276Z" fill="#3b0c80" stroke="#3b0c80"></path><path d="M267 0L225 94L289 78Z" fill="#2d0864" stroke="#2d0864"></path><path d="M883 355L869 243L770 304Z" fill="#31096b" stroke="#31096b"></path><path d="M791 488L858 411L737 329Z" fill="#2d0864" stroke="#2d0864"></path><path d="M185 373L193 456L268 369Z" fill="#3b0c80" stroke="#3b0c80"></path><path d="M640 540L793 540L690 443Z" fill="#380b79" stroke="#380b79"></path><path d="M791 488L828 540L858 411Z" fill="#3b0c80" stroke="#3b0c80"></path><path d="M858 411L883 355L770 304Z" fill="#49109d" stroke="#49109d"></path><path d="M403 0L267 0L289 78Z" fill="#420e8f" stroke="#420e8f"></path><path d="M869 66L771 109L856 218Z" fill="#31096b" stroke="#31096b"></path><path d="M827 0L774 0L771 109Z" fill="#3e0d87" stroke="#3e0d87"></path><path d="M793 540L828 540L791 488Z" fill="#2d0864" stroke="#2d0864"></path><path d="M858 411L960 383L883 355Z" fill="#49109d" stroke="#49109d"></path><path d="M75 112L113 195L225 94Z" fill="#2d0864" stroke="#2d0864"></path><path d="M225 94L113 195L220 195Z" fill="#380b79" stroke="#380b79"></path><path d="M185 373L119 471L193 456Z" fill="#3b0c80" stroke="#3b0c80"></path><path d="M960 103L869 66L856 218Z" fill="#2d0864" stroke="#2d0864"></path><path d="M960 194L856 218L869 243Z" fill="#31096b" stroke="#31096b"></path><path d="M869 66L827 0L771 109Z" fill="#4c11a5" stroke="#4c11a5"></path><path d="M76 353L119 471L185 373Z" fill="#2a075d" stroke="#2a075d"></path><path d="M193 456L157 540L282 540Z" fill="#450f96" stroke="#450f96"></path><path d="M119 471L157 540L193 456Z" fill="#380b79" stroke="#380b79"></path><path d="M61 287L76 353L218 276Z" fill="#31096b" stroke="#31096b"></path><path d="M960 383L960 234L883 355Z" fill="#4c11a5" stroke="#4c11a5"></path><path d="M883 355L960 234L869 243Z" fill="#340a72" stroke="#340a72"></path><path d="M960 485L960 383L858 411Z" fill="#31096b" stroke="#31096b"></path><path d="M960 234L960 194L869 243Z" fill="#2a075d" stroke="#2a075d"></path><path d="M869 66L960 0L827 0Z" fill="#3e0d87" stroke="#3e0d87"></path><path d="M113 195L61 287L218 276Z" fill="#2a075d" stroke="#2a075d"></path><path d="M267 0L164 0L225 94Z" fill="#49109d" stroke="#49109d"></path><path d="M113 195L0 183L61 287Z" fill="#4c11a5" stroke="#4c11a5"></path><path d="M0 540L125 540L119 471Z" fill="#3b0c80" stroke="#3b0c80"></path><path d="M119 471L125 540L157 540Z" fill="#340a72" stroke="#340a72"></path><path d="M164 0L75 112L225 94Z" fill="#49109d" stroke="#49109d"></path><path d="M828 540L960 485L858 411Z" fill="#31096b" stroke="#31096b"></path><path d="M960 194L960 103L856 218Z" fill="#2a075d" stroke="#2a075d"></path><path d="M828 540L960 540L960 485Z" fill="#31096b" stroke="#31096b"></path><path d="M61 287L0 304L76 353Z" fill="#3b0c80" stroke="#3b0c80"></path><path d="M76 353L0 426L119 471Z" fill="#31096b" stroke="#31096b"></path><path d="M0 183L0 304L61 287Z" fill="#420e8f" stroke="#420e8f"></path><path d="M0 304L0 396L76 353Z" fill="#340a72" stroke="#340a72"></path><path d="M0 92L0 183L75 112Z" fill="#49109d" stroke="#49109d"></path><path d="M75 112L0 183L113 195Z" fill="#380b79" stroke="#380b79"></path><path d="M960 103L960 0L869 66Z" fill="#2d0864" stroke="#2d0864"></path><path d="M164 0L73 0L75 112Z" fill="#2d0864" stroke="#2d0864"></path><path d="M0 396L0 426L76 353Z" fill="#2a075d" stroke="#2a075d"></path><path d="M73 0L0 92L75 112Z" fill="#4c11a5" stroke="#4c11a5"></path><path d="M0 426L0 540L119 471Z" fill="#2a075d" stroke="#2a075d"></path><path d="M73 0L0 0L0 92Z" fill="#3e0d87" stroke="#3e0d87"></path></g></svg>