<?xml version="1.0" encoding="utf-8"?>
<!-- Generator: Adobe Illustrator 24.1.1, SVG Export Plug-In . SVG Version: 6.00 Build 0)  -->
<svg version="1.1" xmlns="http://www.w3.org/2000/svg" xmlns:xlink="http://www.w3.org/1999/xlink" x="0px" y="0px"
	 viewBox="0 0 500 500" style="enable-background:new 0 0 500 500;" xml:space="preserve">
<style type="text/css">
	.st0{fill:#FFFFFF;}
	.st1{opacity:0.6;fill:#7FBC00;}
	.st2{fill:#76413B;}
	.st3{fill:#965450;}
	.st4{fill:#352C38;}
	.st5{fill:#252028;}
	.st6{fill:#765E69;}
	.st7{fill:#594750;}
	.st8{fill:#5E2626;}
	.st9{fill:#F7EDE8;}
	.st10{fill:#7FBC00;}
	.st11{fill:#7FBC00;stroke:#FFFFFF;stroke-width:1.0992;stroke-linecap:round;stroke-linejoin:round;stroke-miterlimit:10;}
	.st12{fill:#5D8584;}
	.st13{fill:#4E7B7C;}
	.st14{fill:#F19C7C;}
	.st15{fill:#F28B8B;}
	.st16{opacity:0.4;}
	.st17{fill:#D85A50;}
	.st18{fill:none;stroke:#557704;stroke-width:1.6572;stroke-miterlimit:10;}
	.st19{fill:none;stroke:#557704;stroke-width:1.6072;stroke-miterlimit:10;}
	.st20{fill:#FFA65B;}
	.st21{fill:#FFAC9D;}
	.st22{fill:#FC6A5A;}
	.st23{fill:#F4F4F4;}
	.st24{fill:#F2F2F2;}
	.st25{fill:#EDEDED;}
</style>
<g id="BACKGROUND">
	<rect x="2" class="st0" width="500" height="500"/>
</g>
<g id="OBJECTS">
	<path class="st1" d="M267,459.01c0,0-260,19.56-257-217.1S274-5.52,373,32.62C542.94,98.09,551,457.05,267,459.01z"/>
	<g>
		<g>
			<g>
				<path class="st2" d="M35.22,374.31c0,0,3.32,32.25,12.33,31.78c9.01-0.47,4.74,0,4.74,0v-31.78H35.22z"/>
				<path class="st3" d="M35.93,380.24c0,0,0.71,6.17,2.13,9.96c0,0,7.83,2.37,8.06,7.83c0.24,5.45,4.27,9.49,6.17,2.37
					c1.9-7.11-1.42-17.31-1.42-17.31L35.93,380.24z"/>
			</g>
			<g>
				<path class="st0" d="M32.38,369.57l0.95,9.96c0,0,9.49,8.06,23.71,8.06l-0.95-13.75L32.38,369.57z"/>
				<g>
					<path class="st4" d="M83.36,192.65c0,0-26.8-8.54-36.28,11.86C37.59,224.91,29.06,364.82,30,374.31c0,0,16.6,8.06,30.83,4.27
						l23.71-185.93"/>
					<path class="st5" d="M75.05,241.09c-10.52-7.91-20.78-16.16-31.28-24.09c-0.07-0.05-0.13-0.1-0.2-0.15
						C34.92,257.66,29.17,365.97,30,374.31c0,0,15.18,11.38,29.41,7.59l17.87-139.14C76.54,242.2,75.79,241.65,75.05,241.09z"/>
				</g>
			</g>
		</g>
		<g>
			<g>
				<g>
					<path class="st6" d="M48.5,328.3c0,0-0.95,88.22,12.33,171.7h36.52l0.47-158.42L48.5,328.3z"/>
				</g>
				<g>
					<path class="st7" d="M57.51,390.91c7.82,7.13,36.73,25.74,40.08,28.41l0.08-27.86C86.9,390.17,68.38,391.43,57.51,390.91z"/>
				</g>
			</g>
			<g>
				<g>
					<path class="st6" d="M146.94,339.89L165.18,500h-38.89l-20.65-96.32l-50.45-10.01c0,0-3.79-43.1-5.81-61.4
						C47.36,313.98,146.94,339.89,146.94,339.89z"/>
				</g>
				<g>
					<path class="st7" d="M48.23,356.85c17.07,11.64,38.62,15.02,58.91,16.03c13.66,0.69,29.36,2.87,43.61,0.52l-3.82-33.51
						c0,0-103.3-30.36-101.28-12.07C46.43,334.78,47.36,345.82,48.23,356.85z"/>
				</g>
			</g>
		</g>
		<g>
			<g>
				<g>
					<g>
						<path class="st3" d="M129.62,150.62c0,0-9.42,40.6-0.25,41.48c9.17,0.88,35.31-9.68,33.83,16.12
							c-1.48,25.81-100.95,35.01-104.25,12.12c-3.3-22.89-1.29-27.03,13.26-27.26c14.55-0.23,18.51,6.88,19.68-26.04
							C93.08,134.13,129.62,150.62,129.62,150.62z"/>
					</g>
					<g>
						<path class="st2" d="M115.91,180.57c8.19-8.58,9.41-20.84,7.63-32.12c-10.45-3.06-30.77-5.82-31.64,18.59
							c-0.43,12.15-1.25,18.84-2.83,22.47C98.97,189.52,108.98,187.83,115.91,180.57z"/>
					</g>
				</g>
				<g>
					<g>
						<path class="st3" d="M131.24,134.75c0,0,2.6,6.04,4.06-0.2c2.75-11.76,11.86-41.98-14.7-49.33
							c-22.69-6.28-42.87-0.71-48.79,28.39c-5.92,29.1-11.94,59.96,19.87,61.78C123.49,177.22,127.2,155.8,131.24,134.75z"/>
						<path class="st3" d="M127.1,144.19c0,0,5.51-20.87,13.55-10.6c8.04,10.27-10.56,26.86-15.18,18.36
							C120.87,143.45,127.1,144.19,127.1,144.19z"/>
					</g>
					<g>
						<path class="st4" d="M122.34,138.62c-1.62,11.8-4.31,24.82-8.44,26.47c-7.74,3.1-4.99-7.85-5.94-15.95
							c-0.96-8.09-16.17-2.58-27.24-3.21c-11.08-0.63-3.66,14.45-8.38,14.18c-4.71-0.27-4.28-24.36-4.28-24.36
							s-5.93,25.2-3.92,31.22c2.02,6.03,8.89,5.71,8.89,5.71s-0.98,4.67,5.99,6.96c6.51,2.14,8.38-1.35,8.6-1.82
							c-0.2,0.48-1.38,4.17,8.93,5.42c11.04,1.34,12.89-6.35,12.89-6.35c18.44-1.57,19.09-27.36,20.92-37.32
							C127.71,139.16,125.03,138.83,122.34,138.62z"/>
					</g>
				</g>
			</g>
			<g>
				<path class="st0" d="M102.66,150.73l-25.4,1.86C77.26,152.58,91.71,164.52,102.66,150.73z"/>
				<g>
					<path class="st5" d="M96.36,134.08c0,0-0.05-0.32-0.05-0.89c0-0.57,0.04-1.39,0.26-2.36c0.12-0.48,0.27-1.01,0.51-1.54
						c0.25-0.53,0.55-1.09,1.01-1.59c0.23-0.25,0.46-0.5,0.76-0.7c0.14-0.1,0.28-0.22,0.44-0.31l0.49-0.24
						c0.67-0.3,1.42-0.41,2.13-0.42c0.12,0,0.13-0.01,0.33,0.01l0.24,0.04l0.47,0.07c0.3,0.03,0.72,0.21,1.06,0.31
						c0.35,0.13,0.64,0.34,0.95,0.52c0.26,0.23,0.55,0.44,0.77,0.7c0.45,0.5,0.79,1.06,1.02,1.6c0.25,0.54,0.38,1.08,0.48,1.57
						c0.19,0.99,0.17,1.81,0.14,2.38c-0.04,0.57-0.12,0.89-0.12,0.89s-0.05-0.32-0.16-0.87c-0.12-0.54-0.31-1.32-0.64-2.18
						c-0.08-0.21-0.17-0.44-0.29-0.65c-0.1-0.22-0.21-0.45-0.35-0.66c-0.25-0.44-0.59-0.84-0.96-1.21
						c-0.18-0.18-0.42-0.32-0.62-0.48c-0.24-0.1-0.47-0.25-0.71-0.34c-0.26-0.06-0.42-0.18-0.76-0.21l-0.47-0.06l-0.24-0.03
						c0.04,0-0.11,0.01-0.15,0.01c-0.55-0.01-1.1,0.05-1.58,0.26c-0.24,0.1-0.48,0.2-0.7,0.36c-0.23,0.12-0.42,0.31-0.62,0.49
						c-0.38,0.36-0.7,0.79-0.98,1.22c-0.26,0.44-0.49,0.88-0.68,1.31c-0.36,0.85-0.6,1.61-0.75,2.15
						C96.43,133.76,96.36,134.08,96.36,134.08z"/>
				</g>
				<g>
					<path class="st5" d="M73.74,133.47c0,0-0.05-0.27-0.07-0.75c-0.02-0.48-0.02-1.18,0.1-2.01c0.13-0.83,0.36-1.81,0.95-2.78
						c0.15-0.24,0.34-0.47,0.52-0.71c0.23-0.2,0.43-0.46,0.72-0.61c0.28-0.18,0.57-0.33,0.9-0.41c0.32-0.13,0.65-0.13,0.98-0.15
						l0.25-0.01l0.12,0.02l0.05,0.01l0.1,0.02l0.4,0.07c0.28,0.06,0.67,0.22,0.96,0.36c0.56,0.34,1.02,0.79,1.32,1.29
						c0.33,0.48,0.51,1,0.65,1.47c0.14,0.48,0.21,0.94,0.25,1.36c0.08,0.84,0.03,1.54-0.03,2.01c-0.06,0.48-0.13,0.75-0.13,0.75
						s-0.05-0.27-0.15-0.74c-0.1-0.46-0.25-1.12-0.48-1.87c-0.24-0.74-0.58-1.59-1.12-2.27c-0.25-0.37-0.61-0.59-0.95-0.81
						c-0.19-0.06-0.29-0.14-0.53-0.19l-0.4-0.06l-0.1-0.01l-0.05-0.01l-0.03,0l-0.01,0l-0.01,0c-0.07-0.01,0.08,0.01,0.07,0.01
						l-0.16,0.01c-0.21,0.01-0.42-0.01-0.61,0.07c-0.2,0.03-0.38,0.13-0.56,0.23c-0.19,0.08-0.33,0.26-0.51,0.37
						c-0.15,0.16-0.3,0.32-0.44,0.49c-0.54,0.72-0.91,1.56-1.19,2.29c-0.28,0.74-0.48,1.38-0.61,1.84
						C73.82,133.21,73.74,133.47,73.74,133.47z"/>
				</g>
				<g>
					<path class="st5" d="M85.35,118.65c0,0-0.9-0.54-2.25-1.36c-0.32-0.16-0.62-0.37-0.95-0.52c-0.31-0.19-0.65-0.3-0.96-0.45
						c-0.33-0.08-0.62-0.25-0.92-0.28c-0.15-0.02-0.29-0.08-0.43-0.09c-0.14,0-0.28-0.02-0.42-0.04c-0.14-0.06-0.29,0.01-0.44,0
						c-0.15,0.03-0.29-0.04-0.46,0c-0.32,0.1-0.65,0.03-1.01,0.16c-0.35,0.11-0.72,0.14-1.08,0.25c-0.36,0.13-0.72,0.23-1.07,0.32
						c-0.36,0.07-0.68,0.2-0.98,0.3c-0.3,0.1-0.58,0.16-0.82,0.23c-0.47,0.12-0.79,0.16-0.79,0.16s0.04-0.3,0.2-0.77
						c0.17-0.47,0.37-1.17,0.87-1.86c0.25-0.34,0.54-0.71,0.87-1.08c0.35-0.36,0.81-0.67,1.28-1c0.22-0.18,0.5-0.3,0.8-0.41
						c0.29-0.12,0.59-0.24,0.9-0.33c0.3-0.11,0.66-0.13,1-0.17c0.34-0.02,0.68-0.1,1.04-0.03c0.35,0.05,0.7,0.1,1.04,0.17
						c0.34,0.07,0.65,0.23,0.97,0.35l0.46,0.2l0.4,0.27c0.26,0.19,0.53,0.35,0.74,0.57c0.43,0.42,0.81,0.84,1.07,1.28
						c0.3,0.43,0.47,0.87,0.64,1.27c0.29,0.82,0.38,1.54,0.37,2.05C85.42,118.35,85.35,118.65,85.35,118.65z"/>
				</g>
				<g>
					<path class="st8" d="M86.17,122.95c-0.07,1.74-0.23,3.46-0.44,5.18c-0.1,0.86-0.23,1.71-0.35,2.57
						c-0.12,0.86-0.28,1.7-0.42,2.56c-0.13,0.85-0.32,1.7-0.49,2.55c-0.18,0.85-0.34,1.7-0.56,2.54c-0.22,0.84-0.42,1.68-0.65,2.52
						l-0.82,2.5l-0.42-0.82c0.69,0.24,1.44,0.46,2.17,0.64c0.74,0.19,1.48,0.38,2.23,0.53c0.75,0.16,1.5,0.31,2.26,0.43
						c0.76,0.15,1.52,0.22,2.29,0.35c-0.77,0.05-1.55,0.13-2.33,0.12c-0.78,0-1.56-0.02-2.34-0.1c-0.78-0.07-1.56-0.15-2.33-0.28
						c-0.78-0.13-1.54-0.28-2.33-0.47l-0.59-0.15l0.18-0.67l0.64-2.46c0.18-0.84,0.39-1.67,0.58-2.5l1.14-5.02
						C84.35,129.62,85.14,126.27,86.17,122.95z"/>
				</g>
				<g>
					<path class="st8" d="M129.32,151.78c0.56-0.19,1.1-0.43,1.61-0.71c0.5-0.28,0.99-0.62,1.23-1.05c0.07-0.1,0.07-0.22,0.12-0.31
						c0.01-0.11-0.01-0.21-0.01-0.3c-0.05-0.1-0.08-0.2-0.11-0.3l-0.22-0.29c-0.05-0.1-0.18-0.18-0.27-0.27
						c-0.1-0.09-0.19-0.18-0.29-0.26l-0.69-0.46l-0.26-0.18l0.04-0.33c0.13-1.19,0.29-2.36,0.51-3.53c0.23-1.17,0.48-2.33,0.83-3.49
						c0.35-1.15,0.76-2.29,1.34-3.41c0.31-0.55,0.66-1.1,1.17-1.6c0.25-0.25,0.56-0.48,0.92-0.65c0.38-0.15,0.82-0.27,1.24-0.21
						l0.16,0.02l0.02,0l0.1,0.02l0.03,0.01l0.05,0.02l0.21,0.07c0.15,0.05,0.26,0.07,0.43,0.16c0.34,0.2,0.74,0.4,0.95,0.66
						l0.38,0.37l0.29,0.42c0.21,0.28,0.33,0.59,0.47,0.89c0.26,0.61,0.38,1.25,0.45,1.88c0.02,0.32,0.03,0.63,0.04,0.94
						c-0.01,0.31-0.04,0.62-0.06,0.93c-0.09,0.62-0.23,1.22-0.43,1.8c-0.2,0.58-0.45,1.15-0.78,1.66c-0.15,0.27-0.32,0.52-0.51,0.75
						c-0.19,0.24-0.36,0.49-0.58,0.69c-0.4,0.45-0.89,0.8-1.37,1.14c0.4-0.44,0.79-0.87,1.11-1.35c0.18-0.22,0.31-0.49,0.45-0.74
						c0.15-0.25,0.27-0.5,0.36-0.77c0.23-0.52,0.37-1.07,0.5-1.61c0.12-0.55,0.18-1.1,0.2-1.66c-0.01-0.28,0-0.55-0.01-0.83
						c-0.04-0.27-0.06-0.54-0.1-0.81c-0.11-0.53-0.26-1.04-0.48-1.51c-0.13-0.22-0.22-0.47-0.38-0.65l-0.22-0.29l-0.26-0.23
						c-0.17-0.19-0.34-0.21-0.49-0.34c-0.09-0.05-0.27-0.08-0.4-0.13l-0.21-0.06l-0.05-0.02l-0.03-0.01l-0.01,0
						c0.17,0.04,0.04,0.01,0.08,0.02l-0.01,0l-0.06,0c-0.3-0.03-0.63,0.12-0.96,0.47c-0.33,0.33-0.62,0.78-0.88,1.26
						c-0.52,0.96-0.93,2.03-1.28,3.12c-0.35,1.09-0.67,2.2-0.94,3.33c-0.27,1.12-0.55,2.26-0.76,3.4l-0.22-0.51l0.72,0.61
						c0.11,0.11,0.22,0.24,0.33,0.36c0.1,0.13,0.22,0.23,0.3,0.39l0.25,0.46c0.05,0.18,0.09,0.37,0.13,0.55
						c-0.01,0.19-0.03,0.39-0.09,0.57c-0.09,0.16-0.15,0.35-0.27,0.47c-0.12,0.12-0.22,0.27-0.36,0.35c-0.13,0.09-0.26,0.2-0.4,0.27
						c-0.27,0.16-0.55,0.28-0.84,0.38C130.5,151.59,129.91,151.71,129.32,151.78z"/>
				</g>
				<g>
					<path class="st5" d="M92.38,117.95c0,0,0.13-0.39,0.49-0.98c0.35-0.61,0.94-1.41,1.81-2.24c0.44-0.4,0.94-0.83,1.53-1.21
						c0.57-0.41,1.25-0.73,1.95-1.06c0.35-0.16,0.75-0.26,1.13-0.39c0.39-0.12,0.78-0.25,1.2-0.29c0.42-0.06,0.84-0.13,1.26-0.17
						c0.43-0.02,0.86,0.01,1.3,0.02c0.87,0,1.72,0.25,2.54,0.45c0.42,0.08,0.79,0.29,1.17,0.46c0.37,0.17,0.74,0.34,1.09,0.53
						c0.67,0.41,1.25,0.9,1.8,1.34c0.54,0.45,0.92,1,1.31,1.46c0.38,0.47,0.7,0.9,0.9,1.35c0.22,0.43,0.39,0.82,0.53,1.14
						c0.27,0.63,0.38,1.01,0.38,1.01s-0.4-0.15-1-0.44c-0.3-0.15-0.67-0.32-1.05-0.53c-0.37-0.23-0.84-0.42-1.32-0.63
						c-0.49-0.2-0.95-0.5-1.5-0.68c-0.54-0.17-1.08-0.41-1.63-0.6c-0.58-0.11-1.13-0.32-1.71-0.42c-0.59-0.05-1.15-0.24-1.75-0.2
						c-0.29-0.01-0.59-0.06-0.89-0.05c-0.3,0.03-0.6,0.03-0.89,0.04c-0.6,0.01-1.19,0.14-1.78,0.19c-0.58,0.13-1.17,0.2-1.72,0.36
						c-0.57,0.12-1.09,0.28-1.6,0.42c-1.01,0.3-1.89,0.57-2.52,0.78C92.75,117.83,92.38,117.95,92.38,117.95z"/>
				</g>
			</g>
		</g>
		<g>
			<g>
				<g>
					<g>
						<path class="st4" d="M130.32,190.99c0,0-7.39,16.99-24.9,15.65c-18.63-1.42-20.87-13.99-20.87-13.99s-28.5-4.12-31.63,8.82
							c-3.13,12.94-8.64,133.11-9.64,150.54c0,0,39.84,22.77,109.09,12.33c0,0,9.54-87.05,8.51-131.64c0,0,12.79-8.02,11.89-27.15
							C171.89,186.41,140.55,186.01,130.32,190.99z"/>
					</g>
					<path class="st5" d="M159.19,285.82l-96.46-11.11l-11.86,41.74l-1.44,7.1l81.59,21.36l4.74-23.71c0,0,11.66,4.83,20.67,0.84
						C157.41,310.8,158.39,298.32,159.19,285.82z"/>
				</g>
				<g>
					<path class="st9" d="M104,204.04l1.58,2.19l1.74-2.19l3.05,2.39c0,0-3.38,1.16-9.72,0L104,204.04z"/>
					<polygon class="st0" points="83.36,192.65 87.63,189.57 104,204.04 96.64,215.42 					"/>
					<polygon class="st0" points="115.85,215.42 107.32,204.04 127.71,186.96 131.74,190.76 					"/>
				</g>
			</g>
			<g>
				<g>
					<polygon class="st10" points="65.18,223.08 49.44,323.54 123.44,331.91 136.82,226.43 					"/>
					<g>
						<polygon class="st10" points="68.3,221.94 49.96,321.96 125.89,334.52 138.41,228.98 						"/>
						<g>
							<line class="st11" x1="95.72" y1="224.62" x2="61.39" y2="257.06"/>
							<line class="st11" x1="55.34" y1="290.57" x2="75.05" y2="326.11"/>
						</g>
					</g>
				</g>
				<g>
					<path class="st3" d="M98.95,269.69l-22.94-2.81c-20.16-18.5-8.77-0.71-8.77-0.71l-6.71-1.11c-7.71,0.11-3,4.23-3,4.23
						c-8.32,1.17-0.83,4.91-0.83,4.91c-5.61,1.88,0.07,3.58,0.07,3.58c-8.79,3.78,11.9,12.81,36.3,20.8
						C94.7,288.91,96.82,279.29,98.95,269.69z"/>
					<g>
						<polygon class="st0" points="85.97,298.42 76.72,294.15 81.7,265.7 90.48,267.12 						"/>
						<path class="st4" d="M80.75,299.37l7.59-33.68l41.74,5.69c0,0,10.43-81.11,21.34-81.11c19,0,32.73,2.37,19.45,74.47
							c0,0-7.59,48.38-23.24,49.33C124.91,315.45,80.75,299.37,80.75,299.37z"/>
					</g>
				</g>
			</g>
		</g>
	</g>
	<g>
		<g>
			<g>
				<polyline class="st6" points="443.13,330.5 394.43,348.97 407.15,500 451.34,500 				"/>
				<path class="st7" d="M398.12,382l4.86,43.44c10.93-14.53,21.07-29.72,32.94-43.44H398.12z"/>
			</g>
			<g>
				<path class="st6" d="M375.34,500l17.54-102.36c0,0,27.14-4.74,50.79-17.58c0,0,0.54-28.33-7.81-64.46
					c-8.35-36.13-88.4,30.56-88.4,30.56L333.33,500H375.34z"/>
			</g>
		</g>
		<g>
			<g>
				<g>
					<path class="st12" d="M412.65,201.36c0,0,34.17-5.02,40.41,13.22l8.16,32.65l-24.48,11.52L412.65,201.36z"/>
					<path class="st13" d="M424.46,229.51l12.27,29.24l24.48-11.52l-8.05-32.21C443.99,220.53,434.24,225.03,424.46,229.51z"/>
				</g>
				<g>
					<g>
						<path class="st14" d="M369.96,197.08c11.86-0.28,23.71-0.35,35.56-0.28c-2.32-3.52-3.77-10.03-4.42-21.78
							c-1.78-32.25-35.27-15.36-35.27-15.36S373.13,187.42,369.96,197.08z"/>
						<path class="st15" d="M387.8,191.9c5.39,2.27,11.11,3.51,17,3.65c-1.9-3.74-3.12-10.05-3.7-20.52
							c-1.78-32.25-32.4-11.41-32.4-11.41S370.72,184.71,387.8,191.9z"/>
					</g>
					<g>
						<path class="st12" d="M445.14,206.94c-3.42-7.4-23.65-6.39-32.5-5.58l-1.36-10.3l-47.53-2.4l0.48,11.52l0,0
							c-13.44-0.48-29.72-4.23-38.87,13.35c-9.16,17.58,22.23,139.32,22.23,139.32c44.69,16.12,96.08-8.92,96.08-8.92
							C453.57,304,449.54,216.46,445.14,206.94z"/>
						<path class="st13" d="M381.02,254.58c-20.37-11.46-38.17-26.43-54.65-42.83c-0.34,0.57-0.68,1.16-1,1.78
							c-9.16,17.58,18.71,144.6,18.71,144.6c44.69,16.12,105.14-1.92,105.14-1.92c4.06-16.38,0.23-53.07,0.54-76.8
							C426.19,272.9,402.4,266.61,381.02,254.58z"/>
					</g>
				</g>
			</g>
			<g>
				<g>
					<g>
						<g>
							<path class="st14" d="M325.35,250.59c0,0,13.44,75.85,28.33,72.49c14.88-3.36,63.85-45.13,63.85-45.13l-6.24-15.84
								L370,281.79c0,0-2.4-63.85-15.84-67.69C340.72,210.26,325.35,250.59,325.35,250.59z"/>
							<g class="st16">
								<path class="st17" d="M334.76,265.51c11.6-1.03,22.57-4.13,33.35-8.19c-2.05-18.46-6.13-40.99-13.95-43.22
									c-13.44-3.84-28.81,36.49-28.81,36.49s1.12,6.33,3.08,15.25C330.54,265.8,332.66,265.7,334.76,265.51z"/>
								<path class="st17" d="M393.99,297.09c12.88-10.04,23.55-19.13,23.55-19.13l-6.24-15.84l-18.46,8.8
									C393.26,279.63,393.51,288.37,393.99,297.09z"/>
							</g>
						</g>
						<path class="st12" d="M323.91,262.11c0,0-13.28-52.96,17.76-59.53c24.96-5.28,31.69,50.89,31.69,50.89L323.91,262.11z"/>
					</g>
					<path class="st5" d="M419.85,273.48c0.57,1.05,0.18,2.36-0.87,2.93l0,0c-1.05,0.57-2.36,0.18-2.93-0.87l-21.48-39.69
						c-0.57-1.05-0.18-2.36,0.87-2.93l0,0c1.05-0.57,2.36-0.18,2.93,0.87L419.85,273.48z"/>
				</g>
				<g>
					<polygon class="st3" points="399.29,316.84 415.61,232.34 473.22,238.58 456.9,320.68 					"/>
					<path class="st14" d="M470.82,283.71c0,0,5.76-15.36-6.72-22.08c-12.48-6.72-23.04-9.12-0.48,3.84c0,0-47.53-19.68-0.96,5.28
						c0,0-47.53-17.28-1.44,4.8c0,0-42.73-11.04,2.4,6.72l-3.36,19.68C460.26,301.96,466.98,292.83,470.82,283.71z"/>
				</g>
			</g>
		</g>
		<g>
			<g>
				<line class="st18" x1="435.92" y1="131.62" x2="413.15" y2="135.01"/>
				<g>
					<g>
						<path class="st14" d="M362.06,144.28c0,0-10.45-35.76,11.68-42.36c22.12-6.6,39.78-7.98,46.17,20.43
							c6.39,28.41,12.92,58.55-18.24,60.98C370.52,185.77,366.45,164.84,362.06,144.28z"/>
						<path class="st14" d="M366.31,153.46c0,0-5.82-20.35-13.5-10.12c-7.68,10.23,10.9,26.12,15.25,17.69
							C372.4,152.6,366.31,153.46,366.31,153.46z"/>
					</g>
					<g>
						<path class="st4" d="M424.03,143.98c0,0,0.91,23.61-3.7,23.97c-4.62,0.36,2.35-14.58-8.5-13.73
							c-10.85,0.85-25.87-4.25-26.65,3.7c-0.77,7.95,2.15,18.64-5.51,15.75c-7.66-2.89-11.18-45.1-11.18-45.1s11.65,3.18,7.35-16.76
							c-6.59-2.29-12.05-7.45-16.2-13.05c-2-0.11-9.82,0.25-15.55,11.74c-6.63,13.29,10.97,30.49,10.97,30.49s4.99-1.55,7.43,5.92
							c2.44,7.47,5.6,41.12,25.2,42.38c0,0,37.55,5.43,40.8-14.78C429.49,168.36,424.03,143.98,424.03,143.98z"/>
						<path class="st4" d="M375.03,113.3c0,0,11.31,14.48,32.12,9.05l-4.52-4.07c0,0,12.21,4.07,25.79-3.62
							c0,0-4.52-33.48-31.22-33.48c-23.56,0-39.81,11.31-40.72,26.24C355.58,122.34,375.03,113.3,375.03,113.3z"/>
					</g>
				</g>
			</g>
			<g>
				<g>
					<path class="st0" d="M390.4,159.37l24.95,1.31C415.35,160.68,401.42,172.68,390.4,159.37z"/>
					<g>
						<path class="st5" d="M384.09,133.45c0.45,1.62,1.01,3.2,1.91,4.47c0.46,0.61,0.96,1.18,1.6,1.49c0.63,0.31,1.31,0.5,2.04,0.44
							c1.49-0.01,2.79-0.78,3.62-2.06c0.81-1.31,1.24-2.93,1.49-4.59c0.32,1.66,0.22,3.45-0.54,5.11c-0.38,0.83-1.03,1.57-1.82,2.1
							c-0.81,0.55-1.76,0.76-2.69,0.82c-0.94,0.05-1.93-0.2-2.76-0.69c-0.83-0.51-1.43-1.27-1.86-2.06
							C384.23,136.89,383.97,135.14,384.09,133.45z"/>
					</g>
					<g>
						<path class="st5" d="M417.67,133.33c0.33,1.4,0.36,2.89-0.1,4.36c-0.22,0.73-0.62,1.45-1.25,2.04
							c-0.65,0.59-1.52,0.85-2.36,0.89c-0.86,0.05-1.77-0.34-2.37-0.91c-0.6-0.58-1.03-1.26-1.29-1.97
							c-0.53-1.41-0.68-2.88-0.52-4.32c0.41,1.37,0.87,2.7,1.5,3.86c0.65,1.15,1.55,2.04,2.66,1.95c0.55-0.01,1.11-0.16,1.54-0.5
							c0.45-0.34,0.79-0.86,1.09-1.43C417.14,136.12,417.43,134.73,417.67,133.33z"/>
					</g>
					<g>
						<path class="st17" d="M406.02,131.8c1.14,3.22,2.03,6.48,2.87,9.74l1.22,4.89c0.41,1.62,0.8,3.26,1.28,4.83l0.24,0.77
							l-0.7,0.19c-0.78,0.21-1.52,0.36-2.29,0.5c-0.76,0.14-1.53,0.23-2.29,0.3c-1.53,0.14-3.08,0.16-4.6,0
							c1.51-0.27,2.98-0.56,4.44-0.93c0.73-0.17,1.45-0.39,2.16-0.59c0.71-0.21,1.44-0.44,2.1-0.69l-0.46,0.96
							c-0.65-1.62-1.14-3.25-1.57-4.9c-0.44-1.64-0.81-3.3-1.13-4.97c-0.32-1.67-0.6-3.34-0.82-5.02
							C406.25,135.2,406.08,133.51,406.02,131.8z"/>
					</g>
					<g>
						<path class="st17" d="M364.29,160.94c-0.58-0.05-1.16-0.14-1.73-0.32c-0.57-0.18-1.15-0.42-1.62-0.95
							c-0.12-0.12-0.2-0.31-0.29-0.48c-0.06-0.18-0.08-0.39-0.1-0.58c0.03-0.19,0.07-0.38,0.11-0.56l0.24-0.47
							c0.18-0.3,0.4-0.52,0.61-0.78l0.7-0.63l-0.25,0.59c-0.51-2.2-1.1-4.42-1.84-6.53c-0.37-1.05-0.78-2.09-1.31-3
							c-0.48-0.9-1.25-1.72-1.7-1.59c-0.74,0.08-1.47,0.73-1.87,1.62c-0.41,0.89-0.59,1.97-0.53,3.04c0.08,2.15,0.96,4.31,2.6,5.97
							c-2.02-1.18-3.43-3.42-3.81-5.84c-0.17-1.22-0.14-2.51,0.33-3.75c0.46-1.2,1.47-2.5,3.08-2.73c0.44-0.08,0.9,0.03,1.29,0.19
							c0.37,0.18,0.69,0.4,0.95,0.65c0.52,0.49,0.88,1.03,1.2,1.57c0.6,1.1,1.02,2.22,1.39,3.34c0.7,2.27,1.14,4.55,1.42,6.88
							l0.05,0.39l-0.3,0.2l-0.66,0.45c-0.18,0.17-0.4,0.33-0.54,0.52c-0.33,0.38-0.43,0.72-0.2,1.11c0.23,0.39,0.71,0.73,1.19,1.01
							C363.2,160.52,363.73,160.76,364.29,160.94z"/>
					</g>
				</g>
				<g>
					
						<ellipse transform="matrix(0.9729 -0.2311 0.2311 0.9729 -20.9827 93.2638)" class="st18" cx="387.7" cy="136.22" rx="13.12" ry="13.12"/>
					<ellipse class="st19" cx="420.06" cy="132.62" rx="12.61" ry="12.84"/>
					<line class="st18" x1="352.3" y1="140.78" x2="374.28" y2="139.69"/>
					<path class="st18" d="M400.71,135.8c0,0,2.75-8.22,6.67-1.58"/>
				</g>
			</g>
		</g>
	</g>
	<g>
		<g>
			<g>
				<g>
					<g>
						<path class="st4" d="M197.37,317.47c0,0-15.38,89.37-18.91,182.53h37l27.14-163.31L197.37,317.47z"/>
					</g>
					<g>
						<path class="st5" d="M196.6,383.31c7.42,16.06,17.77,30.91,30.23,43.48l7.31-41.75C221.62,384.55,209.11,383.99,196.6,383.31z
							"/>
					</g>
				</g>
				<path class="st4" d="M287.55,334l14.23,166h-37.94l-21.45-98.4c0,0-26.68-3.83-49.33-16.13c0,0,1.9-46.15,9.89-80.73
					C210.93,270.16,287.55,334,287.55,334z"/>
			</g>
			<g>
				<g>
					<path class="st3" d="M269.96,340.93c11.1-1.02,17.78-2.56,17.78-2.56l1.47,11.48c-6.34,1.36-12.84,2.22-19.3,2.69
						C269.77,348.66,269.57,344.76,269.96,340.93z"/>
					<path class="st3" d="M200.17,346.03c-3.67-0.88-5.74-1.48-5.74-1.48l0.59-10.3c2.06,0.59,4.1,1.12,6.13,1.63
						C200.47,339.19,200.26,342.6,200.17,346.03z"/>
					<path class="st3" d="M206.29,337.08c22.8,5.01,43.59,5.25,58.45,4.26c-0.24,3.8-0.04,7.65,0.06,11.49
						c-23.81,1.01-46.61-2.85-59.52-5.64C205.37,343.77,205.58,340.38,206.29,337.08z"/>
				</g>
				<g>
					<path class="st20" d="M228.04,342.9l12.9,1.52l-0.56,6.12l-12.77-0.76L228.04,342.9 M224.74,338.95l-0.88,14.13l19.72,1.18
						l1.18-12.95L224.74,338.95L224.74,338.95z"/>
				</g>
			</g>
		</g>
		<g>
			<g>
				<g>
					<g>
						<path class="st21" d="M275.57,149.64c0,0-10.21,40.24-1.1,41.31c9.12,1.06,35.37-8.92,33.37,16.75
							c-2,25.67-101.26,32.79-104.08,9.93c-2.82-22.86-0.73-26.94,13.77-26.88c14.5,0.07,22.07,7.38,23.91-25.38
							C243.28,132.61,275.57,149.64,275.57,149.64z"/>
						<path class="st15" d="M254.22,182.46c-5.21,2.33-10.75,3.61-16.43,3.77c1.85-3.81,3.05-10.22,3.65-20.85
							c1.85-32.76,31.34-11.71,31.34-11.71S270.75,175.09,254.22,182.46z"/>
					</g>
					<g>
						<g>
							<g>
								<g>
									<path class="st21" d="M276.73,139.02c0,0,10.07-36.89-10.64-43.08c-20.72-6.18-37.54-4.05-43.52,22.55
										c-5.99,26.6-12.26,58.01,16.91,60.29C268.65,181.05,272.62,158.26,276.73,139.02z"/>
									<path class="st21" d="M272.76,147.61c0,0,5.45-19.06,12.64-9.48c7.19,9.58-10.2,24.46-14.28,16.57
										C267.05,146.8,272.76,147.61,272.76,147.61z"/>
								</g>
							</g>
						</g>
					</g>
				</g>
				<path class="st3" d="M285.4,138.13c0,0-1.32-2.56-4.72-2.56s-6.08,12.64-6.08,12.64l-6.32-2.19l6.32-31.12
					c0,0-5.59-3.16-4.13-11.67c0,0-42.06,15.07-51.05-2.92l4.38,0.97c0,0-10.7-12.4-0.97-25.04c0,0,0.24,5.59,7.29,8.27
					c0,0-2.92-2.67-2.19-7.78c0,0,4.62,3.89,17.5,2.19c12.89-1.7,39.87-1.46,37.68,12.64c0,0,12.89-1.7,15.07,15.07
					C299.76,118.75,285.4,138.13,285.4,138.13z"/>
			</g>
			<g>
				<g>
					<path class="st2" d="M234.9,123.36c0,0-0.24-0.15-0.61-0.39c-0.18-0.12-0.42-0.25-0.64-0.42c-0.23-0.16-0.52-0.31-0.79-0.49
						c-0.29-0.16-0.56-0.35-0.86-0.49c-0.28-0.18-0.59-0.29-0.88-0.43c-0.3-0.08-0.57-0.24-0.84-0.27
						c-0.13-0.02-0.26-0.08-0.39-0.09c-0.13,0-0.26-0.02-0.39-0.04c-0.12-0.05-0.27,0.01-0.4-0.01c-0.14,0.02-0.27-0.05-0.42-0.01
						c-0.3,0.09-0.6,0.02-0.93,0.13c-0.32,0.1-0.66,0.12-1,0.21c-0.33,0.11-0.66,0.2-0.99,0.28c-0.33,0.06-0.63,0.17-0.91,0.25
						c-0.27,0.09-0.54,0.15-0.75,0.2c-0.21,0.06-0.41,0.08-0.53,0.1c-0.13,0.02-0.2,0.03-0.2,0.03s0.02-0.06,0.05-0.18
						c0.03-0.12,0.07-0.31,0.15-0.52c0.08-0.21,0.17-0.48,0.31-0.76c0.13-0.29,0.28-0.63,0.53-0.93c0.23-0.31,0.51-0.64,0.82-0.98
						c0.32-0.32,0.75-0.6,1.19-0.89c0.21-0.16,0.47-0.27,0.74-0.36c0.27-0.11,0.55-0.2,0.83-0.29c0.28-0.1,0.61-0.11,0.92-0.14
						c0.32-0.01,0.63-0.07,0.95-0.01c0.32,0.05,0.64,0.1,0.96,0.17c0.31,0.07,0.59,0.23,0.88,0.35l0.42,0.2l0.36,0.26
						c0.23,0.18,0.48,0.33,0.67,0.53c0.38,0.39,0.72,0.78,0.96,1.2c0.26,0.4,0.42,0.81,0.56,1.18c0.24,0.77,0.32,1.42,0.31,1.89
						c0.01,0.23-0.03,0.43-0.04,0.55C234.91,123.3,234.9,123.36,234.9,123.36z"/>
				</g>
				<g>
					<path class="st22" d="M235.36,126.04c-0.18,2.03-0.47,4.05-0.79,6.05c-0.15,1-0.35,2-0.53,3c-0.18,1-0.4,1.99-0.6,2.98
						c-0.41,1.99-0.89,3.96-1.39,5.93c-0.27,0.98-0.54,1.97-0.83,2.94c-0.29,0.98-0.66,1.96-0.99,2.93l-0.53-0.92l3.2,0.76
						c0.54,0.13,1.07,0.28,1.61,0.4c0.54,0.14,1.07,0.28,1.61,0.44c-1.11,0.07-2.23,0.1-3.34,0.04c-0.55-0.03-1.11-0.04-1.67-0.1
						l-1.66-0.17l-0.76-0.08l0.23-0.85c0.26-0.96,0.56-1.9,0.79-2.88c0.24-0.98,0.5-1.95,0.75-2.93c0.23-0.98,0.48-1.96,0.73-2.94
						l0.75-2.94c0.52-1.96,1.03-3.91,1.6-5.86C234.1,129.91,234.69,127.97,235.36,126.04z"/>
				</g>
				<g>
					<path class="st22" d="M274.65,154.62c0.52-0.18,1.01-0.4,1.48-0.65c0.45-0.26,0.9-0.57,1.12-0.94
						c0.07-0.09,0.06-0.19,0.11-0.27c0.01-0.09-0.01-0.17,0-0.26c-0.04-0.09-0.07-0.17-0.1-0.26l-0.19-0.26
						c-0.05-0.09-0.16-0.16-0.24-0.25c-0.09-0.08-0.17-0.16-0.26-0.24l-0.62-0.43l-0.28-0.19l0.05-0.36c0.14-1.1,0.3-2.17,0.52-3.24
						c0.23-1.07,0.48-2.14,0.81-3.2c0.35-1.05,0.74-2.1,1.3-3.13c0.3-0.51,0.64-1.01,1.13-1.47c0.24-0.23,0.54-0.44,0.89-0.61
						c0.37-0.14,0.8-0.25,1.21-0.17l0.16,0.02l0.02,0l0.11,0.03l0.02,0.01l0.05,0.02l0.19,0.07c0.13,0.05,0.24,0.07,0.4,0.16
						c0.32,0.19,0.7,0.4,0.9,0.65l0.35,0.36l0.27,0.41c0.19,0.27,0.29,0.56,0.42,0.84c0.23,0.58,0.32,1.17,0.38,1.76
						c0.01,0.29,0.01,0.59,0.01,0.88c-0.02,0.29-0.05,0.58-0.08,0.87c-0.1,0.57-0.24,1.13-0.44,1.66c-0.2,0.53-0.44,1.05-0.76,1.52
						c-0.14,0.24-0.31,0.47-0.49,0.68c-0.18,0.22-0.35,0.43-0.56,0.62c-0.39,0.4-0.85,0.7-1.3,1c0.37-0.4,0.73-0.8,1.02-1.24
						c0.16-0.21,0.28-0.45,0.41-0.67c0.14-0.22,0.25-0.45,0.34-0.7c0.21-0.47,0.35-0.97,0.47-1.46c0.12-0.5,0.17-1,0.2-1.5l0-0.75
						l-0.08-0.73c-0.09-0.48-0.23-0.94-0.41-1.36c-0.11-0.2-0.19-0.42-0.33-0.58l-0.19-0.26l-0.23-0.2
						c-0.15-0.17-0.29-0.18-0.41-0.29c-0.08-0.05-0.24-0.08-0.36-0.12l-0.19-0.06l-0.05-0.02l-0.02-0.01l-0.01,0
						c0.18,0.05,0.05,0.01,0.09,0.02l-0.01,0l-0.05,0c-0.22-0.03-0.49,0.08-0.79,0.38c-0.29,0.29-0.56,0.68-0.8,1.11
						c-0.49,0.85-0.88,1.82-1.23,2.81c-0.34,0.99-0.67,2-0.94,3.03c-0.28,1.02-0.56,2.06-0.78,3.09l-0.23-0.55l0.65,0.59
						c0.1,0.11,0.2,0.23,0.3,0.35c0.09,0.13,0.2,0.22,0.28,0.38l0.23,0.44c0.04,0.18,0.08,0.35,0.11,0.53
						c-0.02,0.18-0.04,0.38-0.09,0.55c-0.09,0.15-0.15,0.33-0.27,0.45c-0.12,0.11-0.22,0.25-0.35,0.33
						c-0.13,0.08-0.24,0.18-0.38,0.24c-0.26,0.14-0.53,0.24-0.79,0.32C275.74,154.49,275.19,154.57,274.65,154.62z"/>
				</g>
				<g>
					<path class="st2" d="M242.36,123.15c0,0,0.11-0.42,0.45-1.08c0.33-0.66,0.87-1.55,1.71-2.47c0.83-0.93,1.96-1.88,3.38-2.65
						c0.72-0.37,1.5-0.73,2.36-0.95c0.85-0.25,1.77-0.39,2.71-0.42c0.94-0.03,1.9,0.1,2.82,0.34c0.91,0.26,1.77,0.63,2.51,1.11
						c0.37,0.24,0.73,0.47,1.03,0.76c0.32,0.27,0.62,0.53,0.86,0.83c0.53,0.56,0.91,1.17,1.25,1.72c0.29,0.58,0.56,1.09,0.7,1.59
						c0.16,0.49,0.28,0.92,0.33,1.29c0.13,0.73,0.13,1.15,0.13,1.15s-0.4-0.2-0.99-0.58c-0.28-0.2-0.67-0.39-1.06-0.63
						c-0.38-0.25-0.84-0.48-1.29-0.75c-0.47-0.23-0.95-0.51-1.46-0.71c-0.25-0.12-0.5-0.22-0.76-0.3c-0.26-0.1-0.51-0.19-0.77-0.25
						c-0.51-0.17-1.05-0.23-1.57-0.33c-0.54-0.03-1.07-0.11-1.64-0.07c-1.11,0-2.32,0.21-3.51,0.46c-1.19,0.27-2.38,0.59-3.43,0.9
						c-1.11,0.31-2.03,0.57-2.67,0.75C242.79,123.05,242.36,123.15,242.36,123.15z"/>
				</g>
				<ellipse class="st5" cx="229.8" cy="131.07" rx="1.6" ry="3.73"/>
				<g>
					<path class="st22" d="M232.16,156.03c0,0,0.35,0.19,0.99,0.45c0.63,0.27,1.53,0.62,2.62,0.94c0.54,0.18,1.14,0.3,1.77,0.44
						c0.63,0.13,1.3,0.21,1.98,0.29c0.69,0.05,1.4,0.09,2.11,0.04c0.72,0.01,1.43-0.13,2.15-0.22c0.72-0.1,1.41-0.36,2.11-0.51
						c0.68-0.26,1.34-0.52,1.98-0.77c0.61-0.34,1.21-0.64,1.79-0.93c0.56-0.33,1.06-0.69,1.55-0.98c0.49-0.3,0.94-0.58,1.3-0.89
						c0.37-0.29,0.71-0.53,0.98-0.74c0.56-0.4,0.89-0.63,0.89-0.63s-0.21,0.33-0.62,0.9c-0.2,0.28-0.45,0.63-0.75,1.01
						c-0.15,0.19-0.3,0.41-0.48,0.61c-0.2,0.19-0.4,0.39-0.62,0.6c-0.44,0.41-0.89,0.9-1.44,1.32c-0.57,0.4-1.17,0.83-1.82,1.25
						c-0.68,0.35-1.4,0.7-2.15,1.03c-0.78,0.22-1.57,0.51-2.39,0.64c-0.83,0.11-1.65,0.25-2.47,0.19c-0.82,0.03-1.61-0.12-2.38-0.23
						c-0.76-0.14-1.48-0.36-2.13-0.59c-0.66-0.24-1.26-0.51-1.79-0.81c-0.55-0.26-1-0.59-1.41-0.86c-0.4-0.29-0.73-0.54-0.99-0.78
						c-0.27-0.22-0.46-0.43-0.59-0.56C232.23,156.1,232.16,156.03,232.16,156.03z"/>
				</g>
				<path class="st5" d="M256.82,132.44c0,2.06-0.72,3.73-1.6,3.73c-0.88,0-1.6-1.67-1.6-3.73c0-2.06,0.72-3.73,1.6-3.73
					C256.11,128.71,256.82,130.38,256.82,132.44z"/>
			</g>
		</g>
		<g>
			<g>
				<g>
					<path class="st0" d="M275.49,188.97l-20.16,3.51l-5.24,4.73l-3.88-5.08l-12.8-3.16c0,0-23.86-3.02-28.07,6.1
						c-4.21,9.12-16.14,78.64-9.77,133.48c0,0,41.37,16.12,91.97,5.44c0,0,34.22-116.97,25.45-133.8
						C304.24,183.36,285.31,185.12,275.49,188.97z"/>
					<path class="st23" d="M308.22,232.71c-1.62,8.79-3.89,17.45-6.8,25.8c-6.03,17.31-14.86,34.67-29.41,46.35
						c-22.45,18.01-49.45,21.33-76.81,20.1c0.12,1.21,0.25,2.41,0.39,3.6c0,0,41.37,16.12,91.97,5.44c0,0,17.45-59.65,24.23-99.89
						C310.59,233.64,309.41,233.17,308.22,232.71z"/>
				</g>
				<g>
					<path class="st5" d="M254.98,197.04l-9.11-0.25l-3.34,10.59l3.68,6.84c0,0-16.51,70.28-17.38,97.1l12.27,14.9l11.74-15.43
						l1.43-97.27l5.43-6.31L254.98,197.04z"/>
					<g>
						<polygon class="st24" points="282.5,189.67 276.54,176.7 251.65,191.78 250.09,197.21 254.1,194.58 260.41,208.26 						"/>
						<polygon class="st24" points="250.09,197.21 248.67,191.95 235.7,181.44 228.69,188.62 241.13,210.71 246.92,193.88 						"/>
					</g>
				</g>
			</g>
			<g>
				<path class="st21" d="M312.12,324.9c0,0-20.1,20.48-22.82,9.04c-2.03-8.54-0.31-8.68-0.31-8.68s-25.33,19.74-1.17-4.78
					c0,0-35.97,12.12-0.68-4.79c0,0-34.13,8.83-1.11-3.17c0,0-26.76-4.31,5.28-3.42c0,0,4.51,1.97,6.21,7.79l12.9-10.15
					L312.12,324.9z"/>
				<path class="st0" d="M280.65,187.48c0,0,24.1-5.03,37.79,11.64c13.62,16.59,42.09,57.77,38.37,70.28
					c-3.72,12.5-24.02,43.52-46.55,62.03l-11.65-18.31l26.62-47.87l8.6,12.17l-39.82-51.2L280.65,187.48z"/>
			</g>
			<g>
				<path class="st21" d="M178.4,313.1c0,0,17.7,23,21.82,11.85c3.08-8.33,1.36-8.68,1.36-8.68s23.05,22.89,1.76-4.65
					c0,0,34.66,16.53,1.26-4.73c0,0,33.2,13,1.5-3.05c0,0,27.4-1.09-4.89-4.08c0,0-4.77,1.43-7.18,7.07l-11.73-11.75L178.4,313.1z"
					/>
				<g>
					<path class="st0" d="M228.69,188.62c0,0-20.24-6.94-36.01,8.14c-15.69,15.01-54.66,42.18-52.44,55.18
						c2.22,13.01,18.85,46.61,39.23,67.93l13.92-16.98l-20.93-51.3l-10.11,11.17l51.58-35.85L228.69,188.62z"/>
					<path class="st25" d="M196.75,238.87c1.01-10.25,2.49-21.82,4.48-29.14l-19.94,39.89L196.75,238.87z"/>
				</g>
			</g>
		</g>
	</g>
</g>
</svg>
